<svg xmlns="http://www.w3.org/2000/svg" version="1.1" xmlns:xlink="http://www.w3.org/1999/xlink" xmlns:svgjs="http://svgjs.dev/svgjs" width="1440" height="560" preserveAspectRatio="none" viewBox="0 0 1440 560"><g mask="url(&quot;#SvgjsMask1024&quot;)" fill="none"><rect width="1440" height="560" x="0" y="0" fill="rgba(16, 85, 255, 1)"></rect><path d="M0,383.239C89.648,373.039,177.055,435.314,263.794,410.471C364.115,381.738,462.394,325.22,515.735,235.528C571.014,142.577,596.36,20.233,555.395,-79.854C515.48,-177.375,380.733,-190.532,309.551,-268.227C241.445,-342.565,247.146,-484.669,152.555,-519.554C59.066,-554.032,-34.164,-467.692,-125.915,-428.825C-206.758,-394.578,-298.788,-374.906,-352.624,-305.551C-405.496,-237.437,-410.387,-145.534,-412.722,-59.34C-414.852,19.262,-380.9,89.791,-365.425,166.884C-344.391,271.672,-397.384,420.787,-305.417,475.238C-212.035,530.526,-107.826,395.508,0,383.239" fill="#0039c6"></path><path d="M1440 1139.712C1551.727 1141.063 1673.169 1127.01 1756.709 1052.809 1837.415 981.125 1846.685 862.012 1871.0439999999999 756.851 1891.109 670.229 1889.922 584.733 1885.7069999999999 495.91700000000003 1881.034 397.445 1906.768 285.896 1845.046 209.026 1783.153 131.942 1668.824 131.40300000000002 1573.125 106.618 1480.62 82.66000000000003 1389.82 53.791 1295.125 66.60000000000002 1189.801 80.84699999999998 1079.241 106.97399999999999 1005.395 183.413 930.185 261.264 910.837 374.565 894.266 481.53499999999997 877.543 589.488 867.661 701.358 909.531 802.2570000000001 952.152 904.967 1034.348 985.524 1128.174 1045.211 1221.708 1104.712 1329.152 1138.3719999999998 1440 1139.712" fill="#5989ff"></path></g><defs><mask id="SvgjsMask1024"><rect width="1440" height="560" fill="#ffffff"></rect></mask></defs></svg>